<svg width="43" height="17" viewBox="0 0 43 17" fill="none" xmlns="http://www.w3.org/2000/svg">
<path d="M8.09961 3.03418L3.8457 16H0.418945L6.23047 0.359375H8.41113L8.09961 3.03418ZM11.6338 16L7.36914 3.03418L7.02539 0.359375H9.22754L15.0713 16H11.6338ZM11.4404 10.1777V12.7021H3.17969V10.1777H11.4404ZM29.1758 7.81445V8.55566C29.1758 9.74447 29.0146 10.8115 28.6924 11.7568C28.3701 12.7021 27.9154 13.5078 27.3281 14.1738C26.7409 14.8327 26.0391 15.3376 25.2227 15.6885C24.4134 16.0394 23.5146 16.2148 22.5264 16.2148C21.5452 16.2148 20.6465 16.0394 19.8301 15.6885C19.0208 15.3376 18.319 14.8327 17.7246 14.1738C17.1302 13.5078 16.6683 12.7021 16.3389 11.7568C16.0166 10.8115 15.8555 9.74447 15.8555 8.55566V7.81445C15.8555 6.61849 16.0166 5.55143 16.3389 4.61328C16.6611 3.66797 17.1159 2.8623 17.7031 2.19629C18.2975 1.53027 18.9993 1.02181 19.8086 0.670898C20.625 0.319987 21.5238 0.144531 22.5049 0.144531C23.4932 0.144531 24.3919 0.319987 25.2012 0.670898C26.0176 1.02181 26.7194 1.53027 27.3066 2.19629C27.901 2.8623 28.3594 3.66797 28.6816 4.61328C29.0111 5.55143 29.1758 6.61849 29.1758 7.81445ZM25.9209 8.55566V7.79297C25.9209 6.96224 25.8457 6.23177 25.6953 5.60156C25.5449 4.97135 25.3229 4.44141 25.0293 4.01172C24.7357 3.58203 24.3776 3.25977 23.9551 3.04492C23.5326 2.82292 23.0492 2.71191 22.5049 2.71191C21.9606 2.71191 21.4772 2.82292 21.0547 3.04492C20.6393 3.25977 20.2848 3.58203 19.9912 4.01172C19.7048 4.44141 19.4863 4.97135 19.3359 5.60156C19.1855 6.23177 19.1104 6.96224 19.1104 7.79297V8.55566C19.1104 9.37923 19.1855 10.1097 19.3359 10.7471C19.4863 11.3773 19.7083 11.9108 20.002 12.3477C20.2956 12.7773 20.6536 13.1032 21.0762 13.3252C21.4987 13.5472 21.9821 13.6582 22.5264 13.6582C23.0706 13.6582 23.554 13.5472 23.9766 13.3252C24.3991 13.1032 24.7536 12.7773 25.04 12.3477C25.3265 11.9108 25.5449 11.3773 25.6953 10.7471C25.8457 10.1097 25.9209 9.37923 25.9209 8.55566ZM39.6387 11.9072C39.6387 11.6279 39.5957 11.3773 39.5098 11.1553C39.431 10.9261 39.2806 10.7184 39.0586 10.5322C38.8366 10.3389 38.5251 10.1491 38.124 9.96289C37.723 9.77669 37.2038 9.58333 36.5664 9.38281C35.8574 9.15365 35.1842 8.89583 34.5469 8.60938C33.9167 8.32292 33.3581 7.98991 32.8711 7.61035C32.3913 7.22363 32.0117 6.77604 31.7324 6.26758C31.4603 5.75911 31.3242 5.16829 31.3242 4.49512C31.3242 3.84342 31.4674 3.2526 31.7539 2.72266C32.0404 2.18555 32.4414 1.72721 32.957 1.34766C33.4727 0.960938 34.0814 0.663737 34.7832 0.456055C35.4922 0.248372 36.2692 0.144531 37.1143 0.144531C38.2673 0.144531 39.2734 0.352214 40.1328 0.767578C40.9922 1.18294 41.6582 1.75228 42.1309 2.47559C42.6107 3.19889 42.8506 4.02604 42.8506 4.95703H39.6494C39.6494 4.4987 39.5527 4.09766 39.3594 3.75391C39.1732 3.40299 38.8867 3.12728 38.5 2.92676C38.1204 2.72624 37.6406 2.62598 37.0605 2.62598C36.502 2.62598 36.0365 2.71191 35.6641 2.88379C35.2917 3.0485 35.0124 3.27409 34.8262 3.56055C34.64 3.83984 34.5469 4.15495 34.5469 4.50586C34.5469 4.77083 34.6113 5.01074 34.7402 5.22559C34.8763 5.44043 35.0768 5.64095 35.3418 5.82715C35.6068 6.01335 35.9326 6.1888 36.3193 6.35352C36.7061 6.51823 37.1536 6.67936 37.6621 6.83691C38.5143 7.09473 39.2627 7.38477 39.9072 7.70703C40.5589 8.0293 41.1032 8.39095 41.54 8.79199C41.9769 9.19303 42.3063 9.64779 42.5283 10.1562C42.7503 10.6647 42.8613 11.2412 42.8613 11.8857C42.8613 12.5661 42.7288 13.1748 42.4639 13.7119C42.1989 14.249 41.8158 14.7038 41.3145 15.0762C40.8132 15.4486 40.2152 15.7314 39.5205 15.9248C38.8258 16.1182 38.0488 16.2148 37.1895 16.2148C36.416 16.2148 35.6533 16.1146 34.9014 15.9141C34.1494 15.7064 33.4655 15.3949 32.8496 14.9795C32.2409 14.5641 31.7539 14.0342 31.3887 13.3896C31.0234 12.7451 30.8408 11.9824 30.8408 11.1016H34.0742C34.0742 11.5885 34.1494 12.0003 34.2998 12.3369C34.4502 12.6735 34.6615 12.9456 34.9336 13.1533C35.2129 13.361 35.5423 13.5114 35.9219 13.6045C36.3086 13.6976 36.7311 13.7441 37.1895 13.7441C37.748 13.7441 38.2064 13.6654 38.5645 13.5078C38.9297 13.3503 39.1982 13.1318 39.3701 12.8525C39.5492 12.5732 39.6387 12.2581 39.6387 11.9072Z" fill="#7B79EA"/>
</svg>
