<svg width="36" height="14" viewBox="0 0 36 14" fill="none" xmlns="http://www.w3.org/2000/svg">
<path d="M6.62695 2.3916L3.14648 13H0.342773L5.09766 0.203125H6.88184L6.62695 2.3916ZM9.51855 13L6.0293 2.3916L5.74805 0.203125H7.5498L12.3311 13H9.51855ZM9.36035 8.23633V10.3018H2.60156V8.23633H9.36035ZM23.8711 6.30273V6.90918C23.8711 7.88184 23.7393 8.75488 23.4756 9.52832C23.2119 10.3018 22.8398 10.9609 22.3594 11.5059C21.8789 12.0449 21.3047 12.458 20.6367 12.7451C19.9746 13.0322 19.2393 13.1758 18.4307 13.1758C17.6279 13.1758 16.8926 13.0322 16.2246 12.7451C15.5625 12.458 14.9883 12.0449 14.502 11.5059C14.0156 10.9609 13.6377 10.3018 13.3682 9.52832C13.1045 8.75488 12.9727 7.88184 12.9727 6.90918V6.30273C12.9727 5.32422 13.1045 4.45117 13.3682 3.68359C13.6318 2.91016 14.0039 2.25098 14.4844 1.70605C14.9707 1.16113 15.5449 0.745117 16.207 0.458008C16.875 0.170898 17.6104 0.0273438 18.4131 0.0273438C19.2217 0.0273438 19.957 0.170898 20.6191 0.458008C21.2871 0.745117 21.8613 1.16113 22.3418 1.70605C22.8281 2.25098 23.2031 2.91016 23.4668 3.68359C23.7363 4.45117 23.8711 5.32422 23.8711 6.30273ZM21.208 6.90918V6.28516C21.208 5.60547 21.1465 5.00781 21.0234 4.49219C20.9004 3.97656 20.7188 3.54297 20.4785 3.19141C20.2383 2.83984 19.9453 2.57617 19.5996 2.40039C19.2539 2.21875 18.8584 2.12793 18.4131 2.12793C17.9678 2.12793 17.5723 2.21875 17.2266 2.40039C16.8867 2.57617 16.5967 2.83984 16.3564 3.19141C16.1221 3.54297 15.9434 3.97656 15.8203 4.49219C15.6973 5.00781 15.6357 5.60547 15.6357 6.28516V6.90918C15.6357 7.58301 15.6973 8.18066 15.8203 8.70215C15.9434 9.21777 16.125 9.6543 16.3652 10.0117C16.6055 10.3633 16.8984 10.6299 17.2441 10.8115C17.5898 10.9932 17.9854 11.084 18.4307 11.084C18.876 11.084 19.2715 10.9932 19.6172 10.8115C19.9629 10.6299 20.2529 10.3633 20.4873 10.0117C20.7217 9.6543 20.9004 9.21777 21.0234 8.70215C21.1465 8.18066 21.208 7.58301 21.208 6.90918ZM32.4316 9.65137C32.4316 9.42285 32.3965 9.21777 32.3262 9.03613C32.2617 8.84863 32.1387 8.67871 31.957 8.52637C31.7754 8.36816 31.5205 8.21289 31.1924 8.06055C30.8643 7.9082 30.4395 7.75 29.918 7.58594C29.3379 7.39844 28.7871 7.1875 28.2656 6.95312C27.75 6.71875 27.293 6.44629 26.8945 6.13574C26.502 5.81934 26.1914 5.45312 25.9629 5.03711C25.7402 4.62109 25.6289 4.1377 25.6289 3.58691C25.6289 3.05371 25.7461 2.57031 25.9805 2.13672C26.2148 1.69727 26.543 1.32227 26.9648 1.01172C27.3867 0.695312 27.8848 0.452148 28.459 0.282227C29.0391 0.112305 29.6748 0.0273438 30.3662 0.0273438C31.3096 0.0273438 32.1328 0.197266 32.8359 0.537109C33.5391 0.876953 34.084 1.34277 34.4707 1.93457C34.8633 2.52637 35.0596 3.20312 35.0596 3.96484H32.4404C32.4404 3.58984 32.3613 3.26172 32.2031 2.98047C32.0508 2.69336 31.8164 2.46777 31.5 2.30371C31.1895 2.13965 30.7969 2.05762 30.3223 2.05762C29.8652 2.05762 29.4844 2.12793 29.1797 2.26855C28.875 2.40332 28.6465 2.58789 28.4941 2.82227C28.3418 3.05078 28.2656 3.30859 28.2656 3.5957C28.2656 3.8125 28.3184 4.00879 28.4238 4.18457C28.5352 4.36035 28.6992 4.52441 28.916 4.67676C29.1328 4.8291 29.3994 4.97266 29.7158 5.10742C30.0322 5.24219 30.3984 5.37402 30.8145 5.50293C31.5117 5.71387 32.124 5.95117 32.6514 6.21484C33.1846 6.47852 33.6299 6.77441 33.9873 7.10254C34.3447 7.43066 34.6143 7.80273 34.7959 8.21875C34.9775 8.63477 35.0684 9.10645 35.0684 9.63379C35.0684 10.1904 34.96 10.6885 34.7432 11.1279C34.5264 11.5674 34.2129 11.9395 33.8027 12.2441C33.3926 12.5488 32.9033 12.7803 32.335 12.9385C31.7666 13.0967 31.1309 13.1758 30.4277 13.1758C29.7949 13.1758 29.1709 13.0938 28.5557 12.9297C27.9404 12.7598 27.3809 12.5049 26.877 12.165C26.3789 11.8252 25.9805 11.3916 25.6816 10.8643C25.3828 10.3369 25.2334 9.71289 25.2334 8.99219H27.8789C27.8789 9.39062 27.9404 9.72754 28.0635 10.0029C28.1865 10.2783 28.3594 10.501 28.582 10.6709C28.8105 10.8408 29.0801 10.9639 29.3906 11.04C29.707 11.1162 30.0527 11.1543 30.4277 11.1543C30.8848 11.1543 31.2598 11.0898 31.5527 10.9609C31.8516 10.832 32.0713 10.6533 32.2119 10.4248C32.3584 10.1963 32.4316 9.93848 32.4316 9.65137Z" fill="#7B79EA"/>
</svg>
