<svg width="64" height="22" viewBox="0 0 64 22" fill="none" xmlns="http://www.w3.org/2000/svg">
<path d="M5.32715 17.333C4.43913 17.333 3.59766 17.2363 2.80273 17.043C2.01497 16.8496 1.36328 16.624 0.847656 16.3662V13.1865H1.15918C1.33822 13.3226 1.54232 13.473 1.77148 13.6377C2.00065 13.8024 2.31934 13.9743 2.72754 14.1533C3.07845 14.318 3.47233 14.4613 3.90918 14.583C4.35319 14.6976 4.83301 14.7549 5.34863 14.7549C5.87858 14.7549 6.34408 14.6725 6.74512 14.5078C7.15332 14.3431 7.35742 14.0817 7.35742 13.7236C7.35742 13.4443 7.26432 13.2331 7.07812 13.0898C6.89193 12.9466 6.53027 12.8105 5.99316 12.6816C5.70671 12.61 5.34505 12.5348 4.9082 12.4561C4.47135 12.3701 4.08464 12.2734 3.74805 12.166C2.80273 11.8724 2.09017 11.4391 1.61035 10.8662C1.1377 10.2861 0.901367 9.52702 0.901367 8.58887C0.901367 8.05176 1.02311 7.54688 1.2666 7.07422C1.51725 6.5944 1.88249 6.16829 2.3623 5.7959C2.84212 5.43066 3.43294 5.14062 4.13477 4.92578C4.84375 4.71094 5.64225 4.60352 6.53027 4.60352C7.37533 4.60352 8.15234 4.68945 8.86133 4.86133C9.57031 5.02604 10.1683 5.22656 10.6553 5.46289V8.51367H10.3545C10.2256 8.41341 10.0215 8.28092 9.74219 8.11621C9.46289 7.94434 9.19076 7.79753 8.92578 7.67578C8.61068 7.53255 8.25618 7.41439 7.8623 7.32129C7.47559 7.22819 7.07812 7.18164 6.66992 7.18164C6.12565 7.18164 5.66374 7.27474 5.28418 7.46094C4.91178 7.64714 4.72559 7.89421 4.72559 8.20215C4.72559 8.47428 4.81868 8.68913 5.00488 8.84668C5.19108 9.00423 5.5957 9.1582 6.21875 9.30859C6.54102 9.38737 6.90983 9.46615 7.3252 9.54492C7.74772 9.61654 8.15234 9.7168 8.53906 9.8457C9.4056 10.125 10.0609 10.5368 10.5049 11.0811C10.9561 11.6182 11.1816 12.3343 11.1816 13.2295C11.1816 13.7952 11.0492 14.3359 10.7842 14.8516C10.5192 15.36 10.1432 15.7897 9.65625 16.1406C9.14062 16.5202 8.5319 16.8138 7.83008 17.0215C7.13542 17.2292 6.30111 17.333 5.32715 17.333ZM17.5947 17.2363C16.0622 17.2363 14.945 16.9212 14.2432 16.291C13.5485 15.6608 13.2012 14.6296 13.2012 13.1973V7.55762H11.7617V4.93652H13.2012V1.48828H16.9609V4.93652H20.5811V7.55762H16.9609V11.833C16.9609 12.2555 16.9645 12.6243 16.9717 12.9395C16.9788 13.2546 17.0361 13.5374 17.1436 13.7881C17.2438 14.0387 17.4193 14.2393 17.6699 14.3896C17.9277 14.5329 18.3001 14.6045 18.7871 14.6045C18.9876 14.6045 19.249 14.5615 19.5713 14.4756C19.9007 14.3896 20.1299 14.3109 20.2588 14.2393H20.5811V16.8926C20.1729 17 19.7396 17.0824 19.2812 17.1396C18.8229 17.2041 18.2607 17.2363 17.5947 17.2363ZM30.2275 8.49219H29.916C29.7728 8.44206 29.5651 8.40625 29.293 8.38477C29.0208 8.35612 28.7201 8.3418 28.3906 8.3418C27.9967 8.3418 27.5814 8.39909 27.1445 8.51367C26.7148 8.62826 26.2959 8.76432 25.8877 8.92188V17H22.1279V4.93652H25.8877V6.66602C26.0596 6.50846 26.2959 6.31152 26.5967 6.0752C26.9046 5.83171 27.1839 5.63835 27.4346 5.49512C27.7067 5.3304 28.0218 5.19076 28.3799 5.07617C28.7451 4.95443 29.0889 4.89355 29.4111 4.89355C29.5329 4.89355 29.6689 4.89714 29.8193 4.9043C29.9697 4.91146 30.1058 4.9222 30.2275 4.93652V8.49219ZM35.4268 17H31.667V4.93652H35.4268V17ZM35.5342 3.21777H31.5596V0.285156H35.5342V3.21777ZM50.1328 10.8018C50.1328 12.7282 49.6423 14.2822 48.6611 15.4639C47.6872 16.6455 46.484 17.2363 45.0518 17.2363C44.4502 17.2363 43.9274 17.1683 43.4834 17.0322C43.0394 16.8962 42.5667 16.6849 42.0654 16.3984V21.4258H38.3057V4.93652H42.0654V6.19336C42.6169 5.7207 43.179 5.33757 43.752 5.04395C44.3249 4.75033 44.9873 4.60352 45.7393 4.60352C47.1357 4.60352 48.2171 5.15853 48.9834 6.26855C49.7497 7.37858 50.1328 8.88965 50.1328 10.8018ZM46.2871 10.877C46.2871 9.70247 46.1045 8.85026 45.7393 8.32031C45.3812 7.79036 44.819 7.52539 44.0527 7.52539C43.7161 7.52539 43.3796 7.5791 43.043 7.68652C42.7135 7.79395 42.3877 7.95508 42.0654 8.16992V14.2393C42.266 14.3252 42.4844 14.3861 42.7207 14.4219C42.9642 14.4577 43.2507 14.4756 43.5801 14.4756C44.4967 14.4756 45.1771 14.1784 45.6211 13.584C46.0651 12.9824 46.2871 12.0801 46.2871 10.877ZM58.3398 17.3223C56.0625 17.3223 54.3151 16.778 53.0977 15.6895C51.8874 14.6009 51.2822 13.0505 51.2822 11.0381C51.2822 9.06868 51.848 7.49674 52.9795 6.32227C54.111 5.14779 55.6937 4.56055 57.7275 4.56055C59.5752 4.56055 60.9645 5.05827 61.8955 6.05371C62.8265 7.04915 63.292 8.47428 63.292 10.3291V11.6826H55.0527C55.0885 12.2412 55.2067 12.7103 55.4072 13.0898C55.6077 13.4622 55.8727 13.7594 56.2021 13.9814C56.5244 14.2035 56.9004 14.3646 57.3301 14.4648C57.7598 14.5579 58.2288 14.6045 58.7373 14.6045C59.1742 14.6045 59.6038 14.5579 60.0264 14.4648C60.4489 14.3646 60.8356 14.2357 61.1865 14.0781C61.4945 13.9421 61.7773 13.7952 62.0352 13.6377C62.3001 13.4801 62.515 13.3405 62.6797 13.2188H63.0771V16.3232C62.7692 16.445 62.4863 16.5596 62.2285 16.667C61.9779 16.7673 61.6305 16.8711 61.1865 16.9785C60.7783 17.0859 60.3558 17.1683 59.9189 17.2256C59.4893 17.29 58.9629 17.3223 58.3398 17.3223ZM59.5859 9.41602C59.5645 8.62109 59.3783 8.01595 59.0273 7.60059C58.6836 7.18522 58.1536 6.97754 57.4375 6.97754C56.707 6.97754 56.1341 7.19596 55.7188 7.63281C55.3105 8.06966 55.085 8.66406 55.042 9.41602H59.5859Z" fill="#7B79EA"/>
</svg>
